<svg width="320" height="72" viewBox="0 0 320 72" fill="none" xmlns="http://www.w3.org/2000/svg">
  <rect x="0.75" y="10.75" width="52.5" height="50.5" rx="16.25" fill="#FFFFFF" fill-opacity="0.08" stroke="#0EA5E9" stroke-width="1.5"/>
  <path d="M17 42L28.5 27.5H25.5C23.84 27.5 22.5 26.16 22.5 24.5C22.5 22.84 23.84 21.5 25.5 21.5H39.2C41.74 21.5 43.18 24.37 41.67 26.41L30.5 41.5H34.1C35.76 41.5 37.1 42.84 37.1 44.5C37.1 46.16 35.76 47.5 34.1 47.5H19.35C16.92 47.5 15.56 44.89 17 42Z" fill="#FFD400"/>
  <path d="M49 24V31" stroke="#FFFDF7" stroke-width="4" stroke-linecap="round"/>
  <path d="M56 27V34" stroke="#FFFDF7" stroke-width="4" stroke-linecap="round"/>
  <path d="M67 24H91.2" stroke="#0EA5E9" stroke-width="3.5" stroke-linecap="round"/>
  <path d="M74 17L66.2 24L74 31.2" stroke="#0EA5E9" stroke-width="3.5" stroke-linecap="round" stroke-linejoin="round"/>
  <circle cx="87.5" cy="24" r="4.5" fill="#FFD400"/>
  <path d="M73 58L85.5 49.2H81.85C80.28 49.2 79 47.92 79 46.35C79 44.78 80.28 43.5 81.85 43.5H94.5C96.87 43.5 98.21 46.19 96.8 48.04L84.2 64.5H87.8C89.37 64.5 90.65 65.78 90.65 67.35C90.65 68.92 89.37 70.2 87.8 70.2H75.5C73.12 70.2 71.77 67.49 73 65.66V58Z" fill="#FFD400"/>
  <path d="M119.78 51.12C112.34 51.12 106.64 49.2 102.68 45.36L107.54 39.54C110.78 42.42 114.94 43.86 120.02 43.86C122.46 43.86 124.38 43.44 125.78 42.6C127.18 41.72 127.88 40.54 127.88 39.06C127.88 37.66 127.24 36.58 125.96 35.82C124.72 35.06 122.42 34.38 119.06 33.78C114.22 32.94 110.66 31.62 108.38 29.82C106.1 27.98 104.96 25.14 104.96 21.3C104.96 17.18 106.46 13.88 109.46 11.4C112.5 8.88 116.48 7.62 121.4 7.62C127.12 7.62 131.84 9.28 135.56 12.6L131.24 18.78C127.96 16.34 124.64 15.12 121.28 15.12C119 15.12 117.24 15.56 116 16.44C114.8 17.28 114.2 18.36 114.2 19.68C114.2 21.2 114.84 22.34 116.12 23.1C117.4 23.82 119.84 24.52 123.44 25.2C128.12 26.08 131.54 27.42 133.7 29.22C135.9 31.02 137 33.76 137 37.44C137 41.84 135.42 45.28 132.26 47.76C129.1 50.04 124.94 51.16 119.78 51.12Z" fill="#FFFDF7"/>
  <path d="M157.677 51.18C153.957 51.18 150.957 50.16 148.677 48.12C146.437 46.04 145.317 43.14 145.317 39.42V21.72H138.417V13.98H145.317V4.86H154.017V13.98H166.257V21.72H154.017V37.32C154.017 39 154.437 40.28 155.277 41.16C156.117 42 157.337 42.42 158.937 42.42C161.137 42.42 163.197 41.88 165.117 40.8V47.76C163.037 50.04 160.557 51.18 157.677 51.18Z" fill="#FFFDF7"/>
  <path d="M189.612 51.18C183.972 51.18 179.332 49.4 175.692 45.84C172.092 42.24 170.292 37.78 170.292 32.46C170.292 27.18 172.072 22.76 175.632 19.2C179.232 15.6 183.772 13.8 189.252 13.8C194.932 13.8 199.392 15.68 202.632 19.44C205.912 23.16 207.552 27.82 207.552 33.42C207.552 34.58 207.492 35.38 207.372 35.82H178.932C179.532 38.46 180.892 40.58 183.012 42.18C185.172 43.74 187.792 44.52 190.872 44.52C194.752 44.52 198.052 43.24 200.772 40.68L205.752 45.06C201.952 49.14 196.572 51.18 189.612 51.18ZM178.812 29.64H199.092C198.732 27 197.632 24.88 195.792 23.28C194.032 21.64 191.812 20.82 189.132 20.82C186.452 20.82 184.132 21.64 182.172 23.28C180.252 24.92 179.132 27.04 178.812 29.64Z" fill="#FFFDF7"/>
  <path d="M216.085 61.68V13.98H224.785V19.62C227.745 15.74 231.585 13.8 236.305 13.8C241.145 13.8 245.205 15.58 248.485 19.14C251.805 22.7 253.465 27.16 253.465 32.52C253.465 37.88 251.805 42.34 248.485 45.9C245.205 49.42 241.145 51.18 236.305 51.18C231.545 51.18 227.705 49.44 224.785 45.96V61.68H216.085ZM234.145 43.5C236.985 43.5 239.345 42.48 241.225 40.44C243.145 38.36 244.105 35.72 244.105 32.52C244.105 29.32 243.145 26.7 241.225 24.66C239.345 22.58 236.985 21.54 234.145 21.54C231.265 21.54 228.865 22.58 226.945 24.66C225.025 26.74 224.065 29.36 224.065 32.52C224.065 35.68 225.025 38.3 226.945 40.38C228.865 42.46 231.265 43.5 234.145 43.5Z" fill="#FFFDF7"/>
  <path d="M262.724 50.4V4.86H271.424V31.5L284.804 13.98H294.944L281.504 30.72L295.364 50.4H285.704L276.044 36.42L271.424 41.46V50.4H262.724Z" fill="#FFFDF7"/>
</svg>
