<svg width="96" height="96" viewBox="0 0 96 96" fill="none" xmlns="http://www.w3.org/2000/svg">
  <rect x="8" y="8" width="80" height="80" rx="22" fill="#081D38"/>
  <rect x="11" y="11" width="74" height="74" rx="19" stroke="#0A84E3" stroke-width="2"/>
  <path d="M61 22V30" stroke="#F7FBFF" stroke-width="4" stroke-linecap="round"/>
  <path d="M69 26V34" stroke="#F7FBFF" stroke-width="4" stroke-linecap="round"/>
  <path d="M31 58C31 52.48 35.48 48 41 48H45V58.6C45 61.25 48.27 62.53 50.09 60.57L56 54.19V58C56 63.52 51.52 68 46 68H41C35.48 68 31 63.52 31 58Z" fill="#0A84E3"/>
  <path d="M45.84 22.51C47.77 20.39 51.34 21.76 51.34 24.63V35H58.11C60.92 35 62.43 38.33 60.56 40.44L47.16 55.49C45.24 57.64 41.64 56.28 41.64 53.4V43H34.93C32.13 43 30.62 39.71 32.46 37.61L45.84 22.51Z" fill="#FFD338"/>
</svg>
